Coordinates
version=1
nRows=17
nColumns=36
inDegrees=yes

Units are S.I. units (second, meters, Newtons, ...)
If the header above contains a line with 'inDegrees', this indicates whether rotational values are in degrees (yes) or radians (no).

endheader
time	pelvis_tilt	pelvis_list	pelvis_rotation	pelvis_tx	pelvis_ty	pelvis_tz	hip_flexion_r	hip_adduction_r	hip_rotation_r	knee_angle_r	knee_angle_r_beta	ankle_angle_r	subtalar_angle_r	mtp_angle_r	hip_flexion_l	hip_adduction_l	hip_rotation_l	knee_angle_l	knee_angle_l_beta	ankle_angle_l	subtalar_angle_l	mtp_angle_l	lumbar_extension	lumbar_bending	lumbar_rotation	arm_flex_r	arm_add_r	arm_rot_r	elbow_flex_r	pro_sup_r	arm_flex_l	arm_add_l	arm_rot_l	elbow_flex_l	pro_sup_l
      0.79000000	     -4.64411811	      1.49886433	      1.36836800	     -0.43838248	      1.14658554	     -0.56880767	     23.56985962	     -6.03502759	     -4.28472435	     10.75721894	      0.18774889	    -26.90483158	     -4.38363482	     -6.61971647	     22.33979537	     -3.88965625	     -8.53652837	      7.95014900	      0.13875628	    -29.32478302	      2.29679545	     -6.61971647	    -18.53914369	     -4.20825723	     -4.51380299	    -47.32154222	    -23.54871063	    -37.76083500	    138.27818223	    100.58603093	    -46.34296615	    -24.96863112	    -37.85389385	    142.49214665	    110.95402348
      0.80000000	     -4.31142323	      1.30732778	      1.71527820	     -0.42739719	      1.12445784	     -0.56903345	     23.67867323	     -6.11799380	     -4.51917731	     11.37858700	      0.19859381	    -26.95031720	     -4.50898689	     -6.63191933	     22.38774360	     -4.12149427	     -7.81937530	      8.44409307	      0.14737723	    -29.52942555	      2.66747321	     -6.63191933	    -18.68162165	     -4.01900394	     -4.62705846	    -49.49529834	    -22.89002030	    -38.21371800	    138.67905888	    100.60422065	    -47.78551710	    -25.08877961	    -39.41081695	    143.73735526	    110.80370395
      0.81000000	     -4.03002237	      1.09563234	      1.95179051	     -0.41646072	      1.10140032	     -0.56929412	     23.93096368	     -6.14923089	     -4.70515594	     12.18682515	      0.21270022	    -27.06903047	     -4.49016020	     -6.64967923	     22.60953860	     -4.40648354	     -7.29526073	      9.27360157	      0.16185488	    -29.98646399	      2.47123786	     -6.64967923	    -18.79257653	     -3.81814559	     -4.63269506	    -51.29745798	    -22.02016266	    -38.37474568	    138.88639455	    100.51127784	    -48.92006467	    -24.85900538	    -40.66844897	    144.75847772	    110.54642521
      0.82000000	     -3.77153349	      0.88554804	      2.16980151	     -0.40584540	      1.07741970	     -0.56952658	     24.31991231	     -6.16474048	     -4.69615511	     13.32172183	      0.23250791	    -26.94653964	     -4.32336652	     -6.70093973	     23.02565363	     -4.64803011	     -6.53627313	     10.56693731	      0.18442785	    -30.92259107	      1.06333877	     -6.70093973	    -18.92709568	     -3.63480384	     -4.59050482	    -52.70273385	    -21.07714448	    -38.15823789	    138.79659376	    100.59952672	    -49.67060109	    -24.58763788	    -41.29969961	    145.58011686	    110.62833822
      0.83000000	     -3.52556562	      0.67340919	      2.45329301	     -0.39549527	      1.05249993	     -0.56971447	     24.81059494	     -6.18889621	     -4.64640850	     14.67797075	      0.25617892	    -26.91059131	     -3.88222553	     -6.73663836	     23.76322617	     -4.93552539	     -6.15607633	     12.47687933	      0.21776262	    -31.62309365	      0.69204680	     -6.73663836	    -19.10376902	     -3.41003459	     -4.45308115	    -53.71267833	    -19.84104171	    -37.69726360	    138.60027826	    100.36138200	    -49.83380889	    -24.41310646	    -41.08684069	    146.18335784	    110.47036140
      0.84000000	     -3.28728585	      0.46930161	      2.77046085	     -0.38528350	      1.02669864	     -0.56996380	     25.37416280	     -6.20921437	     -4.46947711	     16.02204220	      0.27963739	    -27.51293615	     -3.37310031	     -6.77224509	     24.66564264	     -5.15823675	     -5.61777040	     14.45767760	      0.25233408	    -32.91043969	      0.56235258	     -6.77224509	    -19.30024925	     -3.21767749	     -4.43385471	    -54.07852393	    -18.64569763	    -36.69142166	    138.08644458	     99.88493994	    -49.57424198	    -24.11772051	    -40.17379187	    146.58395616	    110.08732830
      0.85000000	     -3.24615859	      0.34036411	      3.04972540	     -0.37561468	      1.00012514	     -0.57031911	     26.34723939	     -6.26323241	     -3.77209789	     18.02436362	      0.31458449	    -26.46956319	     -3.81782771	     -6.82451171	     25.90221632	     -5.15734179	     -4.61016710	     17.04320816	      0.29746010	    -32.32033514	     -0.87109116	     -6.82451171	    -19.31093243	     -3.14109810	     -4.44022375	    -53.64327512	    -17.57563022	    -35.09219324	    137.23378032	     99.17053100	    -48.66517000	    -23.73611044	    -38.58170075	    146.70484819	    109.51928561
      0.86000000	     -3.41446046	      0.26580127	      3.38094630	     -0.36675422	      0.97288207	     -0.57055196	     27.79393844	     -6.35652495	     -2.90460804	     21.94675674	      0.38304317	    -19.30530465	     -5.66450673	     -6.91330486	     27.63405663	     -5.01942822	     -3.60142835	     21.76245640	      0.37982652	    -24.84109167	     -3.70909287	     -6.91330486	    -19.21024015	     -3.20452220	     -4.53934754	    -52.52359849	    -16.60421187	    -32.77197882	    136.01370378	     96.74861262	    -47.11604813	    -23.44633217	    -36.02263038	    146.77118495	    106.54984009
      0.87000000	     -3.71124597	      0.14922756	      3.73071772	     -0.35884558	      0.94466753	     -0.57074771	     29.66177497	     -6.45424942	     -2.19698945	     27.94152281	      0.48767157	     -4.59260021	     -5.96947783	     -7.07615237	     29.83192819	     -4.79331800	     -2.23969337	     28.77412896	      0.50220329	     -9.46807700	     -6.11343710	     -7.07615237	    -19.05954128	     -3.24195538	     -4.68278695	    -50.62774068	    -15.77574477	    -30.48548456	    134.09110836	    100.77611112	    -44.77346768	    -23.09950861	    -34.06978735	    145.62204443	    112.56902019
      0.88000000	     -3.99668716	     -0.06558154	      3.94766093	     -0.35297610	      0.91681396	     -0.57074825	     32.25533480	     -6.33441456	     -1.36254178	     34.92631133	      0.60957913	      8.59854249	     -6.35993519	     -7.15163073	     32.49048244	     -4.68207178	     -1.01380095	     36.21724052	      0.63211009	      5.12713563	     -7.21824823	     -7.15163073	    -19.14378785	     -3.11952964	     -4.50122580	    -47.99795229	    -14.96040116	    -27.88502414	    132.45624632	     99.45153069	    -41.18892254	    -23.11677140	    -30.35337558	    144.56662502	    111.10048763
      0.89000000	     -5.02225428	     -0.30653728	      4.06863569	     -0.35052252	      0.89000895	     -0.57062112	     37.34636210	     -6.13685820	     -0.19751710	     43.20227687	      0.75402198	     15.08985637	     -7.75763983	     -7.20939396	     36.82567104	     -4.38937767	      0.68924029	     43.33111279	      0.75627059	     12.96173567	     -9.00277926	     -7.20939396	    -18.73062249	     -3.08185799	     -4.31595810	    -44.16754461	    -14.37724045	    -24.94766006	    130.05000698	     97.54480952	    -36.40127454	    -22.96069871	    -26.28274488	    142.68652983	    109.51207225
      0.90000000	     -6.63708715	     -0.31072184	      4.33489038	     -0.34996791	      0.86504191	     -0.57072873	     44.36677731	     -6.28173084	      1.01069863	     52.47159382	      0.91580208	     16.22686452	     -9.70902178	     -7.29196185	     42.55781577	     -3.57467243	      2.54621743	     50.49838961	      0.88136317	     15.17084194	    -11.44584850	     -7.29196185	    -17.83060695	     -3.35289315	     -4.30019126	    -39.35113485	    -13.56320583	    -21.99705529	    126.51852092	     99.48657535	    -30.52336052	    -22.70798191	    -22.43448402	    139.16045917	    113.05091952
      0.91000000	     -7.99116965	     -0.21335795	      4.82121210	     -0.34865637	      0.84262654	     -0.57144662	     50.65777924	     -6.76640458	      1.80821471	     60.83744166	      1.06181367	     16.52333321	    -10.56891149	     -7.29531914	     48.20401094	     -2.47368614	      4.19740877	     57.85482377	      1.00975716	     15.98645039	    -12.73630487	     -7.29531914	    -17.20409495	     -3.77150791	     -5.06342262	    -33.50928317	    -13.18670983	    -18.23990085	    122.23011108	     99.37551465	    -24.93267337	    -21.87234174	    -18.99390558	    135.56616909	    112.66550028
      0.92000000	     -8.64054529	     -0.24441318	      4.90478738	     -0.34643059	      0.82349257	     -0.57179469	     54.73781227	     -6.90036732	      2.32065054	     66.86130171	      1.16694986	     17.74718992	    -10.40957787	     -7.29985868	     52.54872066	     -2.02578814	      5.02587268	     64.41258102	      1.12421162	     16.76218423	    -12.92985763	     -7.29985868	    -17.49011724	     -3.93567204	     -5.33217629	    -27.30442358	    -12.68232149	    -14.71381480	    117.89427287	     99.40673587	    -19.11945723	    -20.80469218	    -15.84580689	    131.26483674	    112.44679033
      0.93000000	     -8.54671407	     -0.35777574	      4.51298800	     -0.34457071	      0.80808557	     -0.57089964	     56.71520626	     -6.61928150	      2.51123954	     70.68994384	      1.23377227	     20.17661272	     -9.50477514	     -7.30891476	     55.09770200	     -2.50364418	      5.07625153	     69.27460405	      1.20906993	     18.69670222	    -11.76326700	     -7.30891476	    -19.06676097	     -3.99292839	     -5.10209387	    -20.75040112	    -12.01143913	    -11.24751424	    113.85307228	     99.66448910	    -13.02103428	    -19.57556605	    -13.15720040	    126.81651085	    112.49389524
      0.94000000	     -8.18637003	     -0.46804941	      3.91768566	     -0.34351816	      0.79562708	     -0.56904612	     57.65188636	     -6.06956317	      2.60235802	     73.06120926	      1.27515866	     21.60043902	    -10.06804270	     -7.31117231	     56.42676449	     -3.38103121	      4.72265829	     72.44965830	      1.26448508	     19.63016745	    -12.00756549	     -7.31117231	    -21.40828492	     -4.12852068	     -4.74790305	    -14.04931888	    -11.03193194	     -7.84243137	    110.40794931	     99.53116943	     -7.01011965	    -18.21438302	    -11.04402753	    122.85202590	    112.19719301
      0.95000000	     -7.67964692	     -0.51527721	      3.58501793	     -0.34264081	      0.78483010	     -0.56757946	     58.12827951	     -5.77021809	      2.65078599	     75.06218917	      1.31008234	     23.76271135	     -9.67744726	     -7.31953645	     57.12421760	     -3.99324122	      4.48176426	     74.91458365	      1.30750614	     21.72005006	    -11.07696883	     -7.31953645	    -24.08444288	     -4.27072209	     -3.97418586	     -8.30893363	     -9.76631560	     -5.44793859	    108.46058848	     99.48847498	     -0.48190414	    -17.09135057	     -7.83729402	    119.09525128	    112.17161178
